<?xml version="1.0" standalone="no"?>
<!DOCTYPE svg PUBLIC "-//W3C//DTD SVG 20010904//EN"
 "http://www.w3.org/TR/2001/REC-SVG-20010904/DTD/svg10.dtd">
<svg version="1.0" xmlns="http://www.w3.org/2000/svg"
 width="512.000000pt" height="512.000000pt" viewBox="0 0 512.000000 512.000000"
 preserveAspectRatio="xMidYMid meet">

<g transform="translate(0.000000,512.000000) scale(0.100000,-0.100000)"
fill="#000000" stroke="none">
<path d="M3302 4952 c-64 -23 -124 -69 -137 -106 -21 -60 50 -117 103 -83 115
72 174 74 261 6 13 -11 34 -19 46 -19 12 0 33 8 46 19 85 65 164 66 246 1 34
-27 69 -25 98 5 50 49 18 113 -83 162 -74 36 -191 39 -262 7 -45 -20 -45 -20
-90 -1 -64 29 -162 32 -228 9z"/>
<path d="M442 4679 c-135 -20 -273 -91 -379 -195 -49 -48 -63 -68 -63 -90 1
-35 18 -60 51 -72 34 -13 57 -2 122 60 136 131 332 183 502 134 207 -60 351
-205 390 -394 15 -69 39 -102 75 -102 10 0 52 16 94 36 103 49 171 55 253 22
79 -32 106 -55 183 -155 72 -93 125 -135 208 -166 50 -19 86 -22 305 -26 l248
-6 -57 -72 -58 -73 -1133 0 -1134 0 -24 -25 c-32 -31 -32 -69 0 -100 l24 -25
1080 0 1080 0 -47 -74 -47 -75 -68 0 c-58 -1 -71 -4 -92 -26 -32 -31 -32 -69
0 -100 l24 -25 616 0 616 0 24 25 c32 31 32 69 0 100 l-24 25 -461 0 -461 0
49 73 c283 418 612 704 881 767 126 30 302 -4 446 -85 206 -115 482 -382 697
-675 l59 -80 -481 0 -481 0 -24 -25 c-32 -31 -32 -69 0 -100 l24 -25 656 0
656 0 24 25 c14 13 25 36 25 50 0 14 -11 37 -25 50 -22 23 -32 25 -109 25
l-85 0 -51 75 -51 75 236 0 235 0 0 -525 0 -525 -440 0 -441 0 -24 -25 c-32
-31 -32 -69 0 -100 l24 -25 441 0 440 0 0 -666 0 -666 -67 7 c-118 11 -292 35
-473 65 -208 34 -373 57 -490 66 l-85 6 -32 77 c-18 42 -35 84 -39 94 -6 16
17 17 398 17 441 0 475 4 548 58 50 37 67 61 81 110 30 106 -32 261 -154 385
-286 292 -739 379 -1091 208 -76 -37 -195 -118 -224 -154 -12 -15 -23 -9 -95
56 -219 194 -521 397 -857 576 l-115 61 328 0 328 0 24 25 c32 31 32 69 0 100
l-24 25 -479 0 -478 0 -144 66 c-399 182 -1149 486 -1255 509 -88 18 -152 19
-236 1 -139 -30 -243 -108 -296 -221 -25 -54 -28 -71 -28 -165 0 -85 4 -113
21 -150 11 -25 116 -199 232 -387 117 -188 212 -346 212 -352 0 -7 -54 -11
-165 -11 l-165 0 0 144 c0 79 -3 152 -6 161 -4 8 -20 23 -36 31 -25 13 -35 13
-59 3 -17 -6 -34 -20 -39 -30 -6 -11 -10 -383 -10 -979 l0 -961 23 -23 c20
-20 36 -23 143 -29 135 -7 264 -24 524 -67 346 -57 407 -64 620 -64 212 -1
263 4 575 54 616 100 719 102 1205 24 477 -77 482 -77 710 -78 225 0 274 5
630 64 260 43 389 60 524 67 107 6 123 9 143 29 l23 23 0 1596 0 1596 -25 24
-24 25 -344 0 -344 0 -61 73 -61 72 410 5 411 5 19 24 c26 32 24 67 -6 96
l-24 25 -481 0 -480 0 -58 53 c-170 155 -333 257 -499 313 -114 38 -269 44
-383 15 -164 -41 -343 -147 -515 -304 l-84 -77 -280 0 c-295 0 -358 7 -413 43
-18 13 -66 64 -108 116 -45 55 -97 108 -130 130 -108 71 -237 96 -350 66 -36
-9 -71 -18 -78 -18 -7 -1 -24 25 -37 57 -109 267 -439 449 -733 405z m100
-1570 c98 -21 913 -355 1274 -522 901 -418 1426 -798 1720 -1248 68 -103 161
-286 151 -296 -4 -3 -38 -9 -76 -12 l-70 -7 -35 71 c-186 376 -599 747 -1237
1108 -128 72 -492 256 -607 306 -65 29 -75 31 -100 19 -36 -18 -55 -58 -43
-91 8 -21 63 -52 283 -161 591 -292 951 -529 1239 -816 152 -151 220 -235 288
-354 62 -109 63 -101 -26 -116 -62 -10 -78 -10 -81 0 -3 7 -35 58 -73 114
-205 306 -620 649 -1035 858 -135 67 -142 70 -170 57 -38 -19 -57 -59 -44 -93
6 -18 33 -37 92 -67 371 -186 724 -456 942 -719 61 -72 138 -181 133 -186 -1
-2 -67 -12 -146 -24 -303 -43 -495 -38 -881 25 -343 56 -498 76 -651 82 l-146
6 -539 870 -539 871 -3 66 c-3 65 14 140 35 147 6 2 116 -166 244 -374 204
-331 243 -388 310 -455 93 -93 197 -147 389 -203 183 -53 273 -100 347 -179
33 -35 74 -91 89 -123 26 -52 29 -68 28 -158 0 -55 -4 -125 -8 -156 -8 -51 -7
-58 15 -77 46 -44 107 -18 130 55 6 21 14 90 16 153 4 100 2 124 -17 179 -43
130 -168 279 -292 349 -31 18 -145 62 -254 98 -109 35 -219 77 -244 91 -95 56
-146 123 -389 516 -128 208 -231 381 -228 384 22 21 134 28 209 12z m3538
-1190 c36 -5 102 -23 148 -39 224 -76 431 -270 435 -407 2 -39 -2 -48 -26 -67
-28 -21 -36 -21 -487 -24 l-459 -3 -52 77 c-28 42 -87 119 -130 170 l-79 94
58 46 c166 132 379 188 592 153z m-3254 -486 c131 -213 239 -392 239 -398 0
-5 -27 -13 -60 -17 -33 -4 -171 -26 -307 -48 -217 -35 -478 -70 -530 -70 -16
0 -18 14 -18 160 l0 160 234 0 c137 0 245 4 263 10 28 10 53 45 53 74 0 7 -9
25 -21 40 l-20 26 -255 0 -254 0 0 225 0 225 218 0 218 0 240 -387z m814 -567
c58 -9 204 -31 325 -51 530 -86 665 -85 1220 4 572 93 654 93 1195 6 290 -47
386 -60 513 -71 l77 -6 0 -153 0 -153 -72 -7 c-116 -10 -290 -34 -478 -65
-352 -58 -407 -64 -615 -64 -208 0 -263 6 -615 64 -355 59 -405 64 -630 64
-225 0 -275 -5 -630 -64 -352 -58 -407 -64 -615 -64 -209 0 -266 6 -610 64
-172 29 -351 53 -482 65 l-73 7 0 153 0 153 78 6 c126 11 222 24 513 71 151
25 313 49 360 54 111 13 407 5 539 -13z"/>
<path d="M1314 1700 c-30 -12 -135 -79 -161 -103 -31 -28 -30 -71 3 -104 19
-19 32 -24 53 -20 28 6 164 86 190 112 24 24 18 75 -13 102 -29 25 -39 27 -72
13z"/>
<path d="M4082 4652 c-64 -23 -124 -69 -137 -106 -19 -56 46 -115 97 -87 13 6
41 23 63 36 62 38 134 29 202 -25 36 -28 62 -25 113 13 38 27 53 32 100 32 46
0 65 -6 106 -32 58 -38 82 -41 115 -14 37 30 32 86 -11 124 -62 53 -116 72
-205 72 -59 0 -92 -6 -125 -21 -45 -20 -45 -20 -90 -1 -64 29 -162 32 -228 9z"/>
<path d="M2862 2957 c-31 -33 -29 -80 4 -106 26 -21 33 -21 816 -21 l789 0 24
25 c14 13 25 36 25 50 0 14 -11 37 -25 50 l-24 25 -794 0 -794 0 -21 -23z"/>
</g>
</svg>
