<?xml version="1.0" standalone="no"?>
<!DOCTYPE svg PUBLIC "-//W3C//DTD SVG 20010904//EN"
 "http://www.w3.org/TR/2001/REC-SVG-20010904/DTD/svg10.dtd">
<svg version="1.0" xmlns="http://www.w3.org/2000/svg"
 width="80px" height="80px" viewBox="0 0 512.000000 512.000000"
 preserveAspectRatio="xMidYMid meet">

<g transform="translate(0.000000,512.000000) scale(0.100000,-0.100000)"
fill="#000000" stroke="none">
<path d="M2836 4975 c-54 -19 -98 -57 -201 -173 -49 -56 -107 -114 -129 -130
-37 -26 -44 -27 -155 -27 l-116 0 -80 -43 -81 -43 -43 16 c-56 19 -87 19 -136
-4 -109 -49 -141 -106 -161 -280 -19 -164 -33 -191 -148 -294 -163 -147 -233
-221 -241 -255 -6 -28 -10 -32 -41 -32 -44 0 -69 -25 -114 -109 -19 -35 -45
-70 -59 -79 -13 -10 -42 -33 -63 -53 -63 -60 -49 -117 57 -238 87 -99 87 -100
25 -275 l-32 -88 11 -112 c17 -164 35 -239 77 -307 26 -44 34 -66 30 -85 -8
-31 -114 -142 -241 -254 -53 -47 -104 -98 -115 -115 -10 -16 -21 -58 -25 -91
-6 -54 -13 -69 -56 -122 -27 -34 -49 -70 -49 -80 0 -28 141 -146 300 -252 36
-23 81 -58 100 -76 69 -65 153 -79 287 -48 86 20 112 14 185 -41 79 -59 108
-64 193 -30 108 44 128 28 206 -157 52 -123 98 -177 227 -264 127 -86 169
-128 186 -184 42 -142 93 -167 232 -114 l69 26 150 -12 c128 -9 166 -17 260
-48 139 -47 141 -52 50 -153 -80 -89 -112 -150 -96 -185 10 -23 16 -24 100
-24 49 0 121 -7 160 -16 39 -9 77 -14 85 -11 32 13 49 70 57 199 9 135 15 158
89 338 34 83 44 121 48 181 6 104 -11 151 -104 279 -88 121 -104 154 -104 209
0 47 17 62 121 105 80 33 110 62 111 107 1 37 -2 40 -115 105 -43 25 -77 51
-74 57 8 27 79 39 172 30 50 -4 131 -8 180 -8 84 0 95 2 167 38 43 21 87 37
98 35 15 -2 30 -24 55 -82 53 -122 93 -155 166 -136 47 13 79 57 79 110 0 48
-26 194 -45 251 -25 74 -74 123 -155 154 -38 15 -72 31 -76 36 -3 5 13 37 35
70 61 91 58 121 -18 197 -60 59 -60 60 -76 162 -2 14 3 54 11 89 12 52 13 77
4 132 -11 66 -11 67 24 138 41 80 45 122 16 168 -41 68 -124 85 -395 81 l-197
-3 -25 30 c-13 17 -42 57 -62 91 -59 94 -127 115 -245 74 -32 -11 -79 -22
-104 -26 -110 -14 -272 42 -332 114 l-31 37 6 114 7 115 -53 104 c-75 144 -97
169 -171 189 -33 9 -62 23 -65 30 -6 15 20 53 104 151 53 63 67 88 94 170 28
86 38 102 84 147 77 73 224 208 268 245 74 63 80 120 20 183 -53 55 -116 74
-177 52z m102 -92 c45 -28 39 -40 -66 -143 -56 -55 -126 -118 -157 -141 -76
-57 -109 -106 -145 -214 -26 -79 -40 -103 -101 -174 -81 -97 -109 -146 -109
-195 0 -46 28 -72 97 -87 30 -7 60 -17 68 -23 7 -6 38 -51 67 -101 l53 -90 -3
-123 c-3 -143 5 -169 73 -231 87 -80 186 -114 330 -114 79 0 111 4 153 21 76
32 114 29 147 -9 14 -18 34 -48 44 -68 23 -44 67 -90 101 -104 15 -6 117 -11
255 -11 194 -1 236 -4 268 -18 47 -22 47 -38 0 -134 l-36 -76 11 -71 c8 -57 8
-86 -3 -137 -26 -120 7 -242 80 -304 25 -20 45 -44 45 -52 0 -8 -18 -39 -40
-68 -70 -93 -46 -153 81 -201 91 -35 113 -67 139 -200 24 -116 25 -149 5 -165
-22 -18 -33 -5 -80 95 -23 51 -53 100 -66 109 -37 26 -85 19 -182 -25 l-90
-42 -106 9 c-195 16 -259 12 -319 -21 -63 -34 -74 -47 -74 -81 0 -35 49 -84
134 -130 l70 -38 -89 -42 c-113 -52 -143 -85 -143 -158 0 -79 23 -130 110
-249 43 -59 84 -124 91 -144 22 -67 7 -156 -48 -288 -66 -155 -73 -184 -81
-324 l-7 -116 -30 2 c-16 1 -67 5 -112 9 l-82 7 56 61 c72 78 93 113 93 156 0
66 -44 100 -190 147 -81 26 -164 38 -330 48 -99 6 -110 5 -172 -20 -97 -39
-108 -35 -136 52 -28 88 -61 124 -203 221 -57 39 -119 86 -136 104 -19 20 -54
82 -83 147 -54 124 -86 173 -134 202 -42 26 -84 24 -160 -8 l-65 -26 -42 29
c-120 84 -151 92 -260 70 -129 -27 -187 -19 -234 34 -11 13 -58 48 -105 80
-106 71 -240 177 -240 189 0 5 11 22 24 38 37 45 49 74 57 138 l7 59 166 159
c92 88 178 179 192 204 33 55 29 103 -15 171 -37 59 -58 134 -71 268 -11 111
-7 142 31 232 56 130 45 187 -57 309 -41 48 -74 95 -74 104 0 10 23 33 50 53
46 33 75 70 122 156 16 28 21 31 64 29 54 -3 74 15 74 68 0 37 27 67 214 237
142 129 158 161 176 334 15 140 37 187 103 221 48 24 48 24 99 6 59 -21 86
-15 194 41 69 36 69 36 161 29 140 -10 181 13 335 193 46 52 103 108 127 124
47 29 65 29 109 1z"/>
</g>
</svg>
