<?xml version="1.0" encoding="utf-8"?>
<!-- Generator: Adobe Illustrator 13.0.0, SVG Export Plug-In . SVG Version: 6.00 Build 14948)  -->
<!DOCTYPE svg PUBLIC "-//W3C//DTD SVG 1.1//EN" "http://www.w3.org/Graphics/SVG/1.1/DTD/svg11.dtd">
<svg version="1.1" id="Layer_1" xmlns="http://www.w3.org/2000/svg" xmlns:xlink="http://www.w3.org/1999/xlink" x="0px" y="0px"
	 width="600px" height="600px" viewBox="0 0 600 350" enable-background="new 0 0 600 350" xml:space="preserve">
<g>
	<path d="M138.808,283.259c0,0,17.166,1.333,24.528-1.424c7.363-2.756,95.893-40.322,95.893-40.322s120.255-48.886,132.817-53.219
		c12.562-4.335,89.798-27.885,108.136-29.394c18.339-1.507,59.573-5.121,74.143,11.772c14.572,16.893,9.979,40.774,4.299,50.472
		c-5.681,9.698-21.348,19.81-21.348,19.81s24.087-16.588,9.467-39.741c-14.62-23.154-46.855-21.615-66.069-20.888
		c-19.211,0.726-95.276,21.438-115.085,29.407c-19.809,7.968-107.973,36.534-124.629,44.984
		c-16.657,8.449-69.827,27.057-80.11,31.091s-18.867,3.368-25.932,2.504C147.853,287.445,138.808,283.259,138.808,283.259z"/>
	<path d="M201.119,281.359c0,0,69.807-15.415,89.087-21.522c19.28-6.108,110.597-34.19,110.597-34.19s84.301-22.688,94.172-23.981
		s53.91-7.065,61.599,4.462c7.689,11.527,5.689,19.847,1.414,28.466c-4.276,8.619-29.169,19.043-35.657,22.579
		s-12.679,3.452-12.679,3.452s38.101-15.736,34.621-30.502c-3.479-14.765-23.039-16.678-33.024-16.264
		c-9.988,0.412-79.382,13.088-89.78,16.242c-10.399,3.153-103.581,28.795-103.581,28.795s-49.421,11.848-51.7,12.146
		c-2.277,0.299-41.299,8.994-41.299,8.994L201.119,281.359z"/>
	<g>
		<g>
			<path d="M528.209,234.381c-2.83-6.728-23.178-6.964-35.273-7.961c-12.098-0.996-49.247,6.455-49.247,6.455l-115.457,25.777
				l48.575-7.334c0,0,9.047,1.072,12.14,1.313c3.094,0.239,21.036,3.374,21.036,3.374l27.28,6.425c0,0,29.519,2.261,45.512,1.135
				c15.994-1.128,29.938-9.408,36.991-12.913C526.821,247.146,531.039,241.107,528.209,234.381z M506.218,249.2
				c-5.412,3.29-22.93,9.779-34.63,9.699c-11.699-0.079-34.169-1.651-43.191-4.663s-23.932-8.478-23.932-8.478l10.547-2.351
				c0,0,22.844,4.427,31.492,4.585c8.646,0.156,27.476,1.56,30.072-2.006c2.595-3.567,0.811-6.559-1.188-6.943
				c-1.999-0.384-24.153-1.674-24.153-1.674s19.533-3.851,28.098-4.327c8.563-0.478,28.847,1.382,30.796,5.644
				C512.078,242.947,511.63,245.909,506.218,249.2z"/>
		</g>
	</g>
	<g>
		<g>
			<path d="M187.191,156.881l4.106-5.771l-1.254-4.265l-1.24,3.786L187.191,156.881z M191.705,223.126
				c0,0-30.644,15.29-44.518,20.731S93.43,262.981,93.43,262.981s-21.975-19.265-14.541-36.748
				c7.434-17.481,27.307-30.151,41.203-32.778c13.896-2.625,38.791-3.472,48.291,0.115c9.5,3.586,16.195,4.318,16.195,4.318
				l2.614-41.008c0,0-62.472-15.567-84.17-11.516c-21.696,4.05-60.828,7.568-75.592,43.324c-10.204,24.714-7.23,37.586,0.62,55.079
				c4.338,9.669,7.931,15.468,7.931,15.468l-1.552,1.411c0,0-19.583-19.578-21.092-44.344c-1.532-25.143,5.28-49.812,25.948-67.015
				c16.7-13.9,66.793-25.664,88.897-21.313c22.103,4.35,59.369,18.39,59.369,18.39l2.494,0.479l0.739-18.216
				c0,0-66.064-19.123-94.062-15.453c-27.999,3.669-84.955,19.588-90.88,61.835c-5.924,42.248-0.089,70.873,26.138,90.789
				s52.903,22.058,54.662,22.229c1.759,0.171,6.829-0.896,6.829-0.896l-20.046-9.854c0,0,44.924-12.329,63.474-19.189
				c18.55-6.86,58.733-26.218,58.733-26.218l11.522-12.783L191.705,223.126z M66.364,272.134c0,0-5.167-5.967-11.999-13.085
				c-6.833-7.117-11.514-20.964-12.858-32.514c-1.345-11.55,1.608-25.03,5.93-33.219s10.498-12.515,19.481-18.579
				c8.982-6.063,16.761-8.45,24.871-10.881c8.11-2.431,17.316-4.224,29.4-4.635c12.083-0.412,27.86,1.625,39.162,4.249
				c11.302,2.623,22.804,6.783,22.804,6.783l0.197,4.078c0,0-10.087-4.932-22.434-7.809c-12.346-2.876-30.506-3.82-48.25-2.862
				c-17.744,0.957-35.293,8.533-49.916,17.877c-14.621,9.343-20.146,27.654-17.772,49.622c2.373,21.968,25.161,38.915,25.161,38.915
				L66.364,272.134z M71.556,270.338c0,0-4.893-5.463-11.368-11.974c-6.476-6.512-10.873-19.218-12.102-29.827
				c-1.229-10.609,1.644-23.013,5.795-30.557c4.151-7.546,10.053-11.551,18.634-17.163c8.582-5.612,15.999-7.839,23.733-10.11
				c7.734-2.27,16.51-3.959,28.02-4.39c11.509-0.432,26.524,1.371,37.276,3.73c10.751,2.361,21.686,6.134,21.686,6.134l0.17,3.747
				c0,0-9.584-4.487-21.329-7.078c-11.745-2.588-29.034-3.375-45.938-2.417c-16.902,0.958-33.648,8-47.614,16.651
				c-13.967,8.652-19.309,25.508-17.146,45.687c2.163,20.18,23.789,35.656,23.789,35.656L71.556,270.338z M76.749,268.541
				c0,0-4.621-4.957-10.739-10.862c-6.119-5.903-10.231-17.47-11.344-27.139c-1.114-9.67,1.677-20.995,5.659-27.897
				c3.981-6.901,9.607-10.582,17.788-15.745c8.181-5.16,15.237-7.229,22.596-9.34c7.358-2.109,15.702-3.694,26.638-4.145
				c10.935-0.453,25.189,1.116,35.39,3.212c10.201,2.1,20.569,5.486,20.569,5.486l0.142,3.415c0,0-9.081-4.045-20.224-6.347
				c-11.144-2.302-27.564-2.932-43.625-1.973c-16.06,0.96-32.003,7.466-45.313,15.428c-13.311,7.961-18.47,23.358-16.519,41.749
				c1.953,18.394,22.417,32.399,22.417,32.399L76.749,268.541z"/>
		</g>
	</g>
	<g>
		<g>
			<path d="M596.124,161.17c-1.777-8.095-4.692-19.371-17.109-31.9c-12.417-12.529-49.444-21.001-68.939-21.777
				c-19.497-0.777-70.299,11.711-119.365,26.468c-49.07,14.758-199.005,89.164-199.005,89.164l3.925,8.746l9.288-2.778l9.315,16.267
				l18.808-9.96l97.125-42.707c0,0,40.378-15.283,87.71-32.313c47.335-17.028,103.937-23.613,134.563-20.133
				c30.627,3.481,42.302,37.76,42.302,37.76S597.904,169.265,596.124,161.17z M216.283,239.221l-8.159-13.934l60.317-29.291
				c0,0-1.703,10.118-1.374,12.63c0.329,2.511,5.26,4.417,5.26,4.417L216.283,239.221z M274.506,204.459l8.707-15.506
				c0,0,2.259,6.727,3.482,9.758c1.222,3.032,2.381,7.669,2.381,7.669L274.506,204.459z M317.66,193.377c0,0-4.4-8.361-4.729-10.872
				c-0.33-2.51-1.571-7.775-1.571-7.775l12.504,5.065L317.66,193.377z M332.782,186.926l4.017-11.379l-16.023-4.604
				c0,0,2.855-1.331,4.939-2.242c2.084-0.912,51.745-21.146,51.745-21.146s3.743,3.34,5.592,6.929
				c1.848,3.589,3.252,10.107,3.252,10.107L332.782,186.926z M412.557,150.616c-2.023,3.458-4.278,7.264-4.278,7.264
				s-13.127-5.622-15-7.292c-1.87-1.67-8.36-4.969-8.36-4.969l33.244-11.061C418.162,134.559,414.582,147.159,412.557,150.616z
				 M444.877,145.104l-17.445-13.355l25.076-6.159L444.877,145.104z M474.702,137.364l-14.861-14.651l20.179-3.602L474.702,137.364z
				 M501.525,131.934l-13.614-13.537l18.301-1.123L501.525,131.934z M524.806,128.883l-10.431-12.359l13.593,0.772L524.806,128.883z
				 M544.685,131.385l-8.389-13.584l12.568,3.46L544.685,131.385z M562.143,136.44l-7.263-13.413l11.378,4.892L562.143,136.44z
				 M575.746,143.594l-3.58-12.618l6.941,6.751L575.746,143.594z M585.036,153.549l-2.727-12.411l5.669,7.556L585.036,153.549z"/>
		</g>
	</g>
	<path d="M214.232,245.36l-9.323-17.573l-9.28,4.085l-7.775,21.246l-22.788-8.037l-7.417,3.86l-8.641,18.717
		c0,0-14.631-2.808-16.614-4.123c-1.983-1.314-4.547-3.604-4.547-3.604l-6.919,2.482c0,0-3.288,11.191-4.318,13.689
		c-1.031,2.497-1.598,3.358-1.598,3.358s-10.571-4.651-12.365-6.254c-1.794-1.602-3.569-4.78-3.569-4.78l-8.701,2.714
		c0,0-1.278,7.517-1.811,8.636c-0.533,1.121-1.753,3.904-1.753,3.904l4.925,3.028c0,0,35.22-5.928,55.412-12.509
		c20.192-6.583,50.202-19.442,56.386-22.352S214.232,245.36,214.232,245.36z"/>
	<path d="M117.6,256.025c0,0-9.65-13.171-4.674-20.122c4.976-6.95,11.151-15.108,22.556-17.915
		c11.405-2.807,31.194-3.825,37.561-3.61c6.367,0.216,10.866,1.726,10.866,1.726l1.781-0.232l-0.07-9.178
		c0,0-25.31-4.818-39.332-2.98c-14.021,1.837-43.11,6.174-49.311,19.322c-6.201,13.147-3.001,23.752,0.738,29.823
		c3.739,6.07,5.892,8.676,5.892,8.676L117.6,256.025z"/>
	<path d="M136.578,248.814c0,0,0.152-9.206,4.798-13.488c4.646-4.283,19.753-9.938,23.759-10.463
		c4.006-0.525,8.269-0.821,8.269-0.821l-2.556,2.959l12.377-0.572l-0.211-6.796c0,0-25.691-0.834-34.944,4.579
		c-9.252,5.413-15.442,11.735-16.479,17.644c-1.037,5.91,0.003,8.663,0.003,8.663L136.578,248.814z"/>
	<path d="M269.913,57.59c0,0,13.986-3.597,16.436-5.241c2.448-1.645,6.278-4.352,8.954-4.262
		c2.676,0.091,35.485,9.465,39.509,11.143c4.024,1.679,11.304,2.048,11.304,2.048s20.826,2.123,22.924,3.612
		c2.096,1.49,3.934,3.896,3.934,3.896s24.713-0.151,29.51,4.513c4.797,4.665,16.341,17.268,18.292,20.541
		c1.951,3.272,5.877,12.903,5.877,12.903l-2.677-0.09c0,0-0.127-9.687-9.844-14.148c-9.716-4.46-30.86-6.101-30.86-6.101
		l-9.053,12.213l-4.114,0.539l8.135-13.417c0,0-26.775-3.99-34.858-4.695c-8.083-0.705-15.995-0.11-15.995-0.11l-12.77,15.789
		l-5.238,0.687L319.79,81.05c0,0-40.506-1.31-47.353-1.294c-6.847,0.015-23.964,0.053-23.964,0.053s-9.972,11.011-12.192,14.39
		c-2.221,3.378-4.612,5.457-4.612,5.457l-3.538-0.859l10.957-15.11c0,0-23.136,3.472-26.332,5.215
		c-3.196,1.742-7.572,3.198-8.931,7.346c-1.358,4.147-2.888,6.994-2.888,6.994l-3.106-0.475c0,0,5.72-14.423,10.185-18.097
		c4.464-3.673,27.52-10.664,31.724-13.42c4.205-2.757,15.404-7.312,17.648-7.606c2.244-0.294,32.819,3.639,36.617,3.582
		c3.796-0.056,24.768,0.283,24.768,0.283l6.359-0.833c0,0-24.509-1.199-26.923-2.206c-2.415-1.007-17.199-3.481-17.199-3.481
		L269.913,57.59z"/>
	<path d="M226.318,99.474c0,0,24.802-2.368,29.348-2.522c4.546-0.155,9.522,0.075,9.522,0.075l-0.681,29.643l-39.301,2.063
		L226.318,99.474z"/>
	<path d="M224.572,129.697c0,0,24.803-2.369,29.348-2.523c4.546-0.154,9.522,0.076,9.522,0.076l-0.681,29.643l-39.301,2.062
		L224.572,129.697z"/>
	<path d="M222.395,159.535c0,0,24.802-2.367,29.349-2.522c4.545-0.155,9.521,0.076,9.521,0.076l-0.681,29.642l-39.301,2.063
		L222.395,159.535z"/>
	<path d="M309.377,97.411c0,0,1.647,12.576,1.296,15.709c-0.35,3.133-1.831,12.15-1.831,12.15l9.148,0.125l10.177-12.362
		l13.356,11.924l5.724,0.132c0,0-2.297-20.43-2.58-22.599c-0.284-2.168-1.259-3.805-1.259-3.805l-6.157-0.517l-9.279,10.479
		l-13.356-11.923L309.377,97.411z"/>
	<path d="M310.248,127.291c0,0,1.647,12.576,1.298,15.709c-0.351,3.134-1.832,12.15-1.832,12.15l9.148,0.124l10.175-12.36
		l13.359,11.923l5.724,0.132c0,0-2.297-20.43-2.582-22.599c-0.282-2.168-1.258-3.805-1.258-3.805l-6.156-0.516l-9.281,10.479
		l-13.357-11.923L310.248,127.291z"/>
	<path d="M347.262,99.062c0,0,2.037,21.348,2.32,23.516c0.284,2.168-0.237,4.001-0.237,4.001l6.621-1.75l6.061-11.821l1.61,0.671
		l10.624,11.399l4.229,0.327c0,0,0.824-11.135-0.119-15.423c-0.943-4.287-2.485-10.259-2.485-10.259l-4.024-1.679l-8.532,10.382
		l-9.855-8.413L347.262,99.062z"/>
	<path d="M349.518,127.879c0,0,2.036,21.348,2.319,23.516c0.286,2.167-0.235,4-0.235,4l6.619-1.75l6.06-11.821l1.611,0.671
		c0,0,15.678,0.591,14.736-3.696c-0.943-4.287-2.488-10.26-2.488-10.26l-4.024-1.679l-8.531,10.382l-9.854-8.413L349.518,127.879z"
		/>
	<path d="M387.074,100.902c0,0,21.428,3.809,28.015,4.71c6.584,0.902,11.563,1.131,11.563,1.131l3.28,16.332l-17.014,6.641
		l-30.46-3.065l29.463-1.656l-2.16-16.479L387.074,100.902z"/>
	<path d="M197.832,102.766c0,0,9.295-1.659,16.833-2.206c4.452-0.323,28.054-1.31,48.124-2.077
		c13.918-0.532,26.139-0.958,29.096-0.985c7.223-0.064,14.555,0.739,14.555,0.739l-59.296,3.36l-39.13,3.363l2.69,8.911
		l-6.525,14.088c0,0,73.366-3.439,78.285-3.644c4.92-0.203,22.15,0.626,22.15,0.626s-68.559,2.369-77.106,3.93
		c-8.546,1.561-22.965,4.773-22.965,4.773l2.283,11.611l-4.972,14.325c0,0,65.022-3.228,74.171-3.104
		c9.147,0.125,32.104,1.086,32.104,1.086s-94.167,4.401-97.477,5.276c-3.31,0.875-9.668,1.708-9.668,1.708l4.039,10.498
		l-5.721,14.423c0,0,27.681-3.627,39.879-3.461c12.199,0.166,30.722,2.149,30.722,2.149l-4.205,2.756c0,0-21.199-2.074-28.737-1.526
		c-7.538,0.547-53.833,4.408-53.833,4.408l1.893-32.007l4.853-29.749c0,0,4.678-10.758,5.175-15.675
		C195.545,111.446,197.832,102.766,197.832,102.766z"/>
</g>
</svg>
